<?xml version="1.0" encoding="utf-8"?>
<!-- Generator: Adobe Illustrator 18.0.0, SVG Export Plug-In . SVG Version: 6.00 Build 0)  -->
<!DOCTYPE svg PUBLIC "-//W3C//DTD SVG 1.1//EN" "http://www.w3.org/Graphics/SVG/1.1/DTD/svg11.dtd">
<svg version="1.1" id="Layer_1" xmlns="http://www.w3.org/2000/svg" xmlns:xlink="http://www.w3.org/1999/xlink" x="0px" y="0px"
	 viewBox="0 0 100 150" enable-background="new 0 0 100 150" xml:space="preserve">
<g>
	<path fill="#494949" d="M43.5,99.6c-2.1-0.2-3.2-0.4-4.5-1c0,0,2-0.8,3.8-1.3c4-1.2,10.9-2.7,10.9-7.3c0-5.9-6.7-6.2-11.2-7.4
		c-9.9-2.9-20.4-2.9-30.1-7.3c-5.5-2.6-9-6.6-8-12.8c1-6.2,6.1-8.7,11.8-10c1.2-0.3,4.7-0.7,7.4,0c-2.5,0.6-6.4,2-7.7,2.9
		c-2.2,1.4-4.7,3-2.4,6.8c2.2,3.8,6.7,5,11.1,5.7c1.9,0.3,1.7-1.9,1.7-3.1c0-6.4,0.2-12.6,0-19c-0.2-3.5-1.6-6.1-5.2-7.1
		c-1.9-0.5-3.1-1.6-2.8-3.6c0.5-2.4,2.8-1.6,4.3-1.6c13.8,0,27.7-0.3,41.5,0.3c17.3,1,29.1,13,31.3,31.3c1,8.8,0.9,17.8-1.7,26.5
		c-4.5,14.9-14.9,23.5-30.5,25.1c-13.5,1.4-27,0.3-40.7,0.7c-1.6,0-3.6,0.3-4.3-1.7c-0.7-2.4,1.6-2.8,2.9-3.3c5-1.7,5.2-5.2,5.2-9.3
		c0-3.8-0.2-8-0.2-11.8c0-4.5,1.6-5.2,5.2-5.2c3.5,0,5.2,0.3,5.2,5.2c0,0.5,0,1.6,0,2.1c-0.2,9.7-1.9,15.1,3.6,16.6
		c10,2.4,21.5,2.4,29.6-7.1C81.5,89.3,81.9,61.6,70.6,48c-5.5-6.7-23.5-10.9-31.3-7.4c-4,1.7-3.7,5.2-3.8,8.1
		c0.3,7.2-1,15.1,2.9,21.1c2.3,1.8,4.1,2.5,7.9,3.1c0.6,0.1,4.2,0.9,4.8,1c8.6,3,12,8.4,11,14.8C61,95.6,55.9,100.4,43.5,99.6z"/>
	<path fill="#494949" d="M39.3,52c7.6-0.9,12.5,0.5,17.8,1.6c2.4,0.5,2.6,2.9,2.1,5c-0.3,1.6-0.5,3.6-2.9,3.6
		c-1.6,0-4.3,0.7-4.5-1.2C51.1,54.1,44.9,54.7,39.3,52z"/>
</g>
<path fill="#494949" d="M24.3,99.1c-7.6,0.9-12.5-0.5-17.8-1.6c-2.4-0.5-2.6-2.9-2.1-5c0.3-1.6,0.5-3.6,2.9-3.6
	c1.6,0,4.3-0.7,4.5,1.2C12.6,97,18.8,96.4,24.3,99.1z"/>
</svg>
